<?xml version="1.0" encoding="UTF-8" standalone="no"?>
<svg width="15px" height="18px" viewBox="0 0 15 18" version="1.1" xmlns="http://www.w3.org/2000/svg" xmlns:xlink="http://www.w3.org/1999/xlink" xmlns:sketch="http://www.bohemiancoding.com/sketch/ns">
    <!-- Generator: Sketch Beta 3.0.2 (7779) - http://www.bohemiancoding.com/sketch -->
    <title>cocoacup</title>
    <description>Created with Sketch Beta.</description>
    <defs>
        <linearGradient x1="50%" y1="0%" x2="50%" y2="100%" id="linearGradient-1">
            <stop stop-color="#FFFFFF" offset="0%"></stop>
            <stop stop-color="#FFFFFF" stop-opacity="0" offset="100%"></stop>
        </linearGradient>
        <linearGradient x1="50%" y1="0%" x2="50%" y2="100%" id="linearGradient-2">
            <stop stop-color="#B58248" offset="0%"></stop>
            <stop stop-color="#000000" offset="100%"></stop>
        </linearGradient>
        <path id="path-3" d="M7.29862373,0.986566619 C9.64098522,1.64368297 10.9380929,2.60740391 9.36861331,3.16775017 C7.79913368,3.72809642 2.33983643,2.74484735 1.19482027,4.37526217 C0.0498041035,6.00567699 4.32549734,6.58017252 6.03125712,6.58017252 C7.7370169,6.58017252 7.29862362,8.19963241 7.29862362,8.19963241 C7.29862362,8.19963241 9.16701657,6.78594685 9.16701664,6.26565198 C9.16701671,5.7453571 6.20151737,5.91947944 7.29862383,5.37356163 C8.39573029,4.82764382 9.31496715,5.57468924 11.4719193,5.09979423 C13.5776202,4.6361832 15.0653112,2.41020112 12.4589981,1.69330047 C12.3955623,1.6758516 9.36861326,1.24198826 7.29862373,0.986566619 Z"></path>
    </defs>
    <g id="Page-1" stroke="none" stroke-width="1" fill="none" fill-rule="evenodd" sketch:type="MSPage">
        <path d="M13.2172045,7.87414384 C12.0580331,8.01120425 10.7060091,10.2250001 10.7060091,10.2250001 C10.7060091,10.2250001 12.0670996,10.6887511 12.4670403,10.606036 C12.8669809,10.5233208 12.4359118,9.36206838 12.9588018,9.05560785 C13.4816919,8.74914733 13.8636585,9.15496574 13.8636585,9.69781677 C13.8636585,10.2406678 13.4045646,11.1084332 12.7205449,11.6544092 C12.0365253,12.2003853 11.4483048,12.4366211 10.7060091,12.9041095 C10.2181869,13.2113337 9.87351538,13.675428 9.87351538,13.675428 C9.87351538,13.675428 14.3775677,12.9041096 14.9485069,9.69781676 C15.2430447,8.0437447 14.1056635,7.76909247 13.2172045,7.87414384 Z" id="Rectangle-2" stroke="#000000" stroke-width="0.1" fill="#B58248" sketch:type="MSShapeGroup"></path>
        <path d="M1.34890966,7.48767123 C1.34890966,7.48767123 0.795986663,11.9980308 4.86943877,16.5924658 C5.82008133,17.1101884 7.91498734,17.1677045 9.01759638,16.5924658 C12.9695772,12.2206884 12.470405,7.48767123 12.470405,7.48767123 L1.34890966,7.48767123 Z" id="Rectangle-1" stroke="#000000" stroke-width="0.1" fill="#B58248" sketch:type="MSShapeGroup"></path>
        <path d="M2.24000925,8.21369863 C2.14826713,12.0323632 3.40965732,14.9421234 5.04951567,16.7 L5.31954594,16.7878426 C5.31954594,16.7878426 3.13000146,12.1196063 3.81793954,8.59751712 C3.81793954,8.59751712 3.28452346,7.87876712 2.24000925,8.21369863 Z" id="Rectangle-3" fill-opacity="0.660000324" fill="url(#linearGradient-1)" sketch:type="MSShapeGroup"></path>
        <path d="M8.25870084,8.25753425 C8.16695872,12.0761988 10.0549978,15.6463185 11.0682073,16.7438356 L11.4853486,16.8584762 C11.4853486,16.8584762 9.84932332,12.0677228 10.5858157,8.68039383 C10.5858157,8.68039383 9.30321505,7.92260274 8.25870084,8.25753425 Z" id="Rectangle-4" fill-opacity="0.660000324" fill="url(#linearGradient-1)" sketch:type="MSShapeGroup" transform="translate(9.853583, 12.528767) scale(-1, 1) translate(-9.853583, -12.528767) "></path>
        <ellipse id="Oval-2" stroke="#000000" stroke-width="0.1" fill="#B58248" sketch:type="MSShapeGroup" cx="6.90965732" cy="7.48767123" rx="5.56074766" ry="1.35890411"></ellipse>
        <ellipse id="Oval-1" stroke="#000000" stroke-width="0.1" fill="url(#linearGradient-2)" sketch:type="MSShapeGroup" cx="6.90965732" cy="7.46575342" rx="5.29906542" ry="1.20547945"></ellipse>
        <path d="M11.7799828,7.89771271 C10.9687584,8.32687872 9.09347873,8.62739726 6.90965732,8.62739726 C4.72583591,8.62739726 2.85055622,8.32687872 2.0393318,7.89771271 C2.98662285,7.41801026 4.81257541,7.09315068 6.90965732,7.09315068 C9.00673923,7.09315068 10.8326918,7.41801026 11.7799828,7.89771271 Z" id="Oval-4" fill="#542D00" sketch:type="MSShapeGroup"></path>
        <g id="Rectangle-5">
            <use stroke="#000000" stroke-width="0.1" fill="#FFFFFF" fill-rule="evenodd" sketch:type="MSShapeGroup" xlink:href="#path-3"></use>
            <use stroke="none" fill="none" xlink:href="#path-3"></use>
        </g>
        <path d="M13.0820617,8.28347603 C13.0820617,8.28347603 13.8837617,8.14884413 14.3017548,8.49130993 C14.7197479,8.83377572 14.5780691,10.0154153 14.6073063,9.94674661 C14.6365434,9.8780779 14.8844918,8.54396404 14.3017548,8.28347603 C13.7190177,8.02298801 13.0820617,8.28347603 13.0820617,8.28347603 Z" id="Rectangle-6" fill-opacity="0.620000362" fill="#FFFFFF" sketch:type="MSShapeGroup"></path>
    </g>
</svg>